<svg xmlns="http://www.w3.org/2000/svg" viewBox="0 0 12.7 12.7" height="48" width="48">
    <path fill="#825efc"  d="M2.533.661c-.595 0-1.078.483-1.078 1.078v9.336c0 .594.483 1.077 1.078 1.077h7.181c.595 0 1.077-.483 1.077-1.077V9.997h.45a.27.27 0 00.268-.269V8.83a.27.27 0 00-.269-.269h-.449V7.125h.45a.27.27 0 00.268-.27v-.897a.27.27 0 00-.269-.27h-.449V4.253h.45a.27.27 0 00.268-.27v-.897a.27.27 0 00-.269-.27h-.449V1.74c0-.595-.482-1.078-1.077-1.078zM3.779 2.19c.574 0 .943.114 1.38.457a4.86 4.86 0 011.126-.127c.343 0 .688.037 1.02.116.432-.338.8-.446 1.368-.446.125.247.186.384.186.657 0 .208-.034.415-.098.612.349.411.495.917.495 1.45 0 .404-.041.833-.222 1.205-.481.972-1.803.95-2.75.95-.962 0-2.363.033-2.863-.95-.185-.368-.256-.801-.256-1.206 0-.532.176-1.034.526-1.442a1.985 1.985 0 01-.097-.619c0-.273.061-.41.185-.657zM4.94 4.5c-.594 0-.932.49-.932 1.048 0 1.114 1.02 1.286 1.908 1.286h.612c.892 0 1.91-.17 1.91-1.286 0-.557-.338-1.048-.932-1.048-.24 0-.47.043-.71.076-.19.03-.379.04-.573.04-.193 0-.382-.01-.572-.04-.237-.033-.47-.076-.71-.076zm.12.349c.327 0 .465.434.465.699 0 .265-.138.7-.466.7-.327 0-.465-.435-.465-.7 0-.265.138-.7.465-.7zm2.33 0c.328 0 .466.434.466.699 0 .265-.138.7-.465.7-.328 0-.466-.435-.466-.7 0-.265.138-.7.466-.7zM5.119 7.654h.112a2.323 2.323 0 001.787 0h.112c.832 0 1.508.58 1.508 1.293v.43c0 .239-.225.432-.503.432H4.112c-.278 0-.502-.193-.502-.431v-.431c0-.714.675-1.293 1.508-1.293z" />
</svg>
