<?xml version="1.0" encoding="UTF-8" standalone="no"?>
<svg
   xmlns:dc="http://purl.org/dc/elements/1.1/"
   xmlns:cc="http://creativecommons.org/ns#"
   xmlns:rdf="http://www.w3.org/1999/02/22-rdf-syntax-ns#"
   xmlns:svg="http://www.w3.org/2000/svg"
   xmlns="http://www.w3.org/2000/svg"
   xmlns:sodipodi="http://sodipodi.sourceforge.net/DTD/sodipodi-0.dtd"
   xmlns:inkscape="http://www.inkscape.org/namespaces/inkscape"
   inkscape:export-ydpi="96"
   inkscape:export-xdpi="96"
   inkscape:export-filename="C:\Users\kylemit\Documents\github\github-directory\assets\github-directory.png"
   sodipodi:docname="github-directory.svg"
   inkscape:version="1.0 (4035a4fb49, 2020-05-01)"
   id="svg8"
   version="1.1"
   viewBox="0 0 12.7 12.7"
   height="48"
   width="48">
  <defs
     id="defs2" />
  <sodipodi:namedview
     inkscape:snap-grids="false"
     inkscape:window-maximized="0"
     inkscape:window-y="146"
     inkscape:window-x="2688"
     inkscape:window-height="1208"
     inkscape:window-width="1424"
     showguides="true"
     units="px"
     showgrid="true"
     inkscape:document-rotation="0"
     inkscape:current-layer="layer1"
     inkscape:document-units="mm"
     inkscape:cy="32.040822"
     inkscape:cx="28.534203"
     inkscape:zoom="11.2"
     inkscape:pageshadow="2"
     inkscape:pageopacity="0.0"
     borderopacity="1.0"
     bordercolor="#666666"
     pagecolor="#ffffff"
     id="base">
    <inkscape:grid
       id="grid34"
       type="xygrid" />
  </sodipodi:namedview>
  <metadata
     id="metadata5">
    <rdf:RDF>
      <cc:Work
         rdf:about="">
        <dc:format>image/svg+xml</dc:format>
        <dc:type
           rdf:resource="http://purl.org/dc/dcmitype/StillImage" />
        <dc:title></dc:title>
      </cc:Work>
    </rdf:RDF>
  </metadata>
  <g
     id="layer1"
     inkscape:groupmode="layer"
     inkscape:label="Layer 1">
    <path
       d="m 2.5326619,0.66145833 c -0.594722,0 -1.0774536,0.48273147 -1.0774536,1.07745357 v 9.3358641 c 0,0.594722 0.4827316,1.076937 1.0774536,1.076937 H 9.714136 c 0.594721,0 1.076936,-0.482215 1.076936,-1.076937 V 9.9973221 h 0.449069 c 0.148119,0 0.269234,-0.121115 0.269234,-0.269234 V 8.8304686 c 0,-0.148119 -0.121115,-0.2692342 -0.269234,-0.2692342 H 10.791072 V 7.1246295 h 0.449069 c 0.148119,0 0.269234,-0.1211143 0.269234,-0.2692342 V 5.9577757 c 0,-0.1481195 -0.121115,-0.2692341 -0.269234,-0.2692341 h -0.449069 v -1.436088 h 0.449069 c 0.148119,0 0.269234,-0.1216313 0.269234,-0.2697511 V 3.0850829 c 0,-0.1481196 -0.121115,-0.2692342 -0.269234,-0.2692342 H 10.791072 V 1.7389119 c 0,-0.5947221 -0.482215,-1.07745357 -1.076936,-1.07745357 z M 3.7785807,2.1890136 c 0.5748851,0 0.9429673,0.1141733 1.3807943,0.4568197 0.3680259,-0.087565 0.7460628,-0.1271241 1.1255126,-0.1271241 0.3426449,0 0.6881156,0.03684 1.0206095,0.1167888 0.431481,-0.3388399 0.7993362,-0.4464844 1.3678752,-0.4464844 0.1243679,0.2474668 0.1855184,0.3844771 0.1855184,0.6573241 0,0.2081268 -0.033455,0.4151447 -0.098185,0.6118489 0.348992,0.4111758 0.4950602,0.91727 0.4950602,1.4490073 0,0.4048295 -0.040733,0.8337764 -0.2222087,1.2056113 -0.480974,0.9720995 -1.802985,0.9492959 -2.7497031,0.9492959 -0.9619451,0 -2.362864,0.034228 -2.8628742,-0.9492959 C 3.2356978,5.7447777 3.1646648,5.3120234 3.1646648,4.9071939 c 0,-0.5317373 0.1763216,-1.0344028 0.5265828,-1.4417725 -0.06599,-0.2005113 -0.097669,-0.4109569 -0.097669,-0.6190837 0,-0.272847 0.061899,-0.4098573 0.1850021,-0.6573241 z m 1.1627197,2.3109699 c -0.59392,0 -0.9327595,0.4908809 -0.9327595,1.0479982 0,1.1142355 1.0200725,1.2857096 1.9084105,1.2857096 h 0.6118489 c 0.8921491,0 1.9109947,-0.1702051 1.9109947,-1.2857096 0,-0.5571173 -0.3388387,-1.0479982 -0.9327597,-1.0479982 -0.239853,0 -0.469429,0.042972 -0.710551,0.075964 -0.18909,0.029188 -0.3784089,0.040824 -0.5725747,0.040824 -0.1928961,0 -0.3817003,-0.011637 -0.5720583,-0.040824 -0.237313,-0.032994 -0.4694298,-0.075964 -0.7105509,-0.075964 z m 0.1188558,0.3488161 c 0.3274171,0 0.4661215,0.4339481 0.4661215,0.6991821 0,0.2652344 -0.1387044,0.6996988 -0.4661215,0.6996988 -0.3274171,0 -0.4656047,-0.4344644 -0.4656047,-0.6996988 0,-0.265234 0.1381876,-0.6991821 0.4656047,-0.6991821 z m 2.3316406,0 c 0.3274179,0 0.4656048,0.4339481 0.4656048,0.6991821 0,0.2652344 -0.1381869,0.6996988 -0.4656048,0.6996988 -0.3274171,0 -0.4661215,-0.4344644 -0.4661215,-0.6996988 0,-0.265234 0.1387044,-0.6991821 0.4661215,-0.6991821 z m -2.273763,2.8049966 h 0.1121379 c 0.2760411,0.1144561 0.5765315,0.1798341 0.8929687,0.1798341 0.3164369,0 0.6196896,-0.065378 0.8934855,-0.1798341 h 0.1121378 c 0.8326107,0 1.5079183,0.5792774 1.5079183,1.2929444 v 0.4309813 c 0,0.237889 -0.2245257,0.4309812 -0.5028115,0.4309812 h -4.02146 c -0.2782847,0 -0.5028117,-0.1930922 -0.5028117,-0.4309812 V 8.9467406 c 0,-0.713667 0.6758246,-1.2929444 1.508435,-1.2929444 z"
       style="stroke-width:0.0224423;fill:currentColor;fill-opacity:1"
       id="path21" />
  </g>
</svg>
